ply
format ascii 1.0
comment PCL generated
element vertex 318
property float x
property float y
property float z
element camera 1
property float view_px
property float view_py
property float view_pz
property float x_axisx
property float x_axisy
property float x_axisz
property float y_axisx
property float y_axisy
property float y_axisz
property float z_axisx
property float z_axisy
property float z_axisz
property float focal
property float scalex
property float scaley
property float centerx
property float centery
property int viewportx
property int viewporty
property float k1
property float k2
end_header
-0.029999999 0.036411576 0
-0.021 0.035089795 0
-0.0099999998 0.04085698 0
-0.0049999999 0.033832211 0
-0.0060000001 0.033832211 0
-0.011 0.033832211 0
-0.013 0.033883162 0
-0.015 0.033883162 0
-0.017000001 0.033883162 0
-0.003 0.03268316 0
-0.012 0.03268316 0
-0.022 0.032831043 0
-0.024 0.031727973 0
-0.025 0.032880343 0
-0.027000001 0.029654818 0
-0.028000001 0.02854678 0
0.0060000001 0.028333426 0
-0.037999999 0.030854821 0
0.0080000004 0.026133912 0
-0.034000002 0.029699145 0
-0.035 0.030808838 0
-0.035999998 0.031918533 0
-0.037 0.02974347 0
0.0089999996 0.024996454 0
-0.039999999 0.030854821 0
-0.041999999 0.029787799 0
0 0.03268316 0
-0.044 0.030900808 0
0.0099999998 0.022800252 0
0.011 0.021702152 0
-0.048 0.028760133 0
-0.050000001 0.029876454 0
-0.054000001 0.029920779 0
-0.056000002 0.028845476 0
0.014 0.01950595 0
-0.055 0.029920779 0
-0.059 0.029965108 0
-0.057999998 0.029965108 0
-0.001 0.03268316 0
-0.075000003 0.030098088 0
0.017000001 0.017309748 0
-0.014 0.03268316 0
-0.061000001 0.028888147 0
-0.023 0.032831043 0
-0.067000002 0.030053763 0
-0.075999998 0.030098088 0
-0.048999999 0.030946789 0
-0.064000003 0.028930817 0
-0.077 0.030098088 0
-0.068000004 0.030053763 0
-0.081 0.0278899 0
0.018999999 0.014015445 0
-0.066 0.031130724 0
-0.068999998 0.030053763 0
-0.041000001 0.031966172 0
-0.07 0.031176707 0
-0.02 0.032831043 0
-0.082000002 0.0278899 0
-0.082999997 0.0278899 0
-0.236 0.015729031 0
0.0049999999 0.028333426 0
0.013 0.020604052 0
-0.064999998 0.030009435 0
-0.244 0.019240784 0
-0.086000003 0.027930917 0
-0.030999999 0.030762857 0
-0.088 0.027971931 0
-0.089000002 0.027971931 0
-0.094999999 0.02805396 0
-0.108 0.025901303 0
-0.23800001 0.016896302 0
-0.045000002 0.029832127 0
-0.046999998 0.030946789 0
-0.241 0.020388572 0
0.033 0.011890552 0
0.0040000002 0.030532939 0
-0.090000004 0.0291015 0
-0.090999998 0.029144172 0
-0.092 0.026921077 0
-0.096000001 0.029186841 0
-0.097000003 0.029186841 0
-0.11 0.027039154 0
-0.097999997 0.028094975 0
-0.098999999 0.028094975 0
-0.052000001 0.029876454 0
-0.1 0.028094975 0
-0.0040000002 0.03268316 0
0.017999999 0.016211648 0
-0.101 0.026999796 0
-0.102 0.028094975 0
-0.072999999 0.030098088 0
-0.103 0.028094975 0
-0.104 0.028094975 0
-0.106 0.026999796 0
-0.107 0.026999796 0
-0.109 0.028135991 0
-0.114 0.024835542 0
-0.018999999 0.03278175 0
-0.23899999 0.015774621 0
-0.23999999 0.015774621 0
-0.083999999 0.027930917 0
-0.242 0.015797416 0
0.012 0.027315697 0
0.028999999 0.0019450991 0
-0.161 0.021505283 0
-0.18000001 0.020388572 0
-0.18099999 0.02153636 0
-0.15700001 0.022684148 0
-0.169 0.021505283 0
-0.198 0.019324077 0
-0.252 0.010493906 0
-0.0070000002 0.034984574 0
0.046999998 -0.0057677138 0
0.035999998 0.00084076537 0
-0.079000004 0.0278899 0
-0.15899999 0.022651415 0
-0.071000002 0.028973488 0
-0.20100001 0.019324077 0
-0.191 0.019296313 0
-0.214 0.018092994 0
-0.039000001 0.026488137 0
0.055 -0.013457339 0
-0.208 0.020447414 0
-0.19499999 0.021598514 0
-0.0089999996 0.033832211 0
-0.21799999 0.018066885 0
0.015 0.01840785 0
-0.21600001 0.018092994 0
0.034000002 0.0041450053 0
-0.17299999 0.021505283 0
-0.211 0.019268546 0
-0.16 0.022651415 0
0.003 0.030486956 0
-0.16500001 0.021505283 0
-0.162 0.021505283 0
0.021 0.014015445 0
-0.199 0.019324077 0
-0.22499999 0.01915749 0
-0.0020000001 0.03268316 0
-0.189 0.021567436 0
-0.156 0.022684148 0
-0.057 0.031038756 0
-0.205 0.018171318 0
-0.117 0.025939004 0
-0.061999999 0.030009435 0
-0.20200001 0.018171318 0
0.050000001 -0.010188665 0
-0.20900001 0.019296313 0
-0.122 0.025976704 0
0.043000001 -0.004666301 0
0.030999999 0.0019421786 0
-0.19400001 0.019296313 0
-0.228 0.015706234 0
0.048999999 -0.010188665 0
-0.093000002 0.031498592 0
0.045000002 -0.0057677138 0
0.048 -0.010188665 0
0.054000001 -0.013457339 0
0.037999999 -0.0035702481 0
-0.12899999 0.026014408 0
-0.17 0.021505283 0
-0.255 0.009322146 0
-0.212 0.0181191 0
-0.071999997 0.033521187 0
-0.25799999 0.0082557797 0
-0.028999999 0.029654818 0
-0.213 0.020388572 0
0.052999999 -0.013477607 0
-0.22400001 0.02030031 0
0.052000001 -0.012376193 0
-0.193 0.019296313 0
-0.219 0.022684148 0
-0.017999999 0.033883162 0
0.035 0.003043592 0
-0.127 0.024907634 0
-0.085000001 0.027930917 0
0.056000002 -0.012376193 0
-0.221 0.018066885 0
-0.20999999 0.018145211 0
-0.197 0.019324077 0
-0.237 0.015729031 0
0.037 -0.00026064785 0
-0.2 0.019324077 0
-0.153 0.022684148 0
-0.257 0.0083453953 0
-0.113 0.028177004 0
0.029999999 0.00084202969 0
0.050999999 -0.01127478 0
-0.206 0.018171318 0
-0.23100001 0.015660642 0
0.032000002 0.0041450053 0
-0.167 0.020359151 0
-0.033 0.032978933 0
-0.074000001 0.028973488 0
-0.164 0.019240784 0
0.041999999 -0.0035648874 0
0.0020000001 0.031585056 0
-0.17200001 0.019240784 0
0.039999999 -0.00026064785 0
-0.24699999 0.015820213 0
0.041000001 -0.0013620611 0
0.059 -0.01127478 0
-0.223 0.020329731 0
-0.105 0.026999796 0
-0.18799999 0.020417992 0
0.044 0.0019480198 0
-0.204 0.018171318 0
-0.12800001 0.026014408 0
-0.093999997 0.02805396 0
-0.186 0.020417992 0
-0.079999998 0.026803004 0
-0.185 0.020417992 0
-0.050999999 0.029876454 0
0.02 0.014015445 0
-0.16599999 0.020359151 0
-0.183 0.020417992 0
0.057 -0.012376193 0
-0.17399999 0.021505283 0
-0.016000001 0.033883162 0
-0.233 0.015683439 0
-0.13500001 0.023763159 0
-0.111 0.027039154 0
-0.259 0.0071305721 0
0.039000001 -0.0057763867 0
-0.17900001 0.020388572 0
-0.178 0.019268546 0
-0.175 0.022651415 0
-0.168 0.020359151 0
-0.026000001 0.032929637 0
-0.141 0.022684148 0
-0.25400001 0.010421335 0
-0.22 0.020329731 0
-0.23199999 0.015660642 0
-0.229 0.015683439 0
-0.132 0.02487159 0
-0.243 0.015797416 0
-0.249 0.014797605 0
-0.125 0.025976704 0
-0.18700001 0.020417992 0
-0.182 0.020417992 0
-0.192 0.019296313 0
-0.152 0.022684148 0
-0.086999997 0.029058831 0
-0.15000001 0.02494368 0
-0.235 0.015706234 0
-0.13 0.02487159 0
-0.25 0.013716155 0
-0.046 0.030946789 0
-0.177 0.020388572 0
-0.138 0.024907634 0
-0.19599999 0.017043013 0
-0.134 0.026014408 0
-0.147 0.023797547 0
-0.20299999 0.017043013 0
-0.133 0.02487159 0
-0.227 0.015729031 0
0.025 0.011854897 0
-0.0080000004 0.034984574 0
-0.15800001 0.02153636 0
0.027000001 0.010769655 0
-0.059999999 0.031084741 0
-0.14 0.023797547 0
0.026000001 0.012956311 0
0.016000001 0.01840785 0
0.028000001 0.0085635157 0
-0.118 0.025939004 0
-0.25099999 0.013716155 0
-0.171 0.021505283 0
-0.14300001 0.023797547 0
-0.154 0.022684148 0
-0.23 0.015683439 0
0.057999998 -0.012376193 0
-0.15099999 0.02494368 0
-0.12 0.027078511 0
-0.19 0.01701856 0
-0.149 0.023797547 0
-0.207 0.018171318 0
-0.176 0.020388572 0
-0.13699999 0.024907634 0
-0.139 0.024907634 0
-0.043000001 0.030900808 0
-0.119 0.025939004 0
-0.248 0.014797605 0
0.046 -0.0079705408 0
-0.24600001 0.015820213 0
-0.13600001 0.026014408 0
-0.215 0.018092994 0
-0.078000002 0.0278899 0
-0.155 0.021567436 0
-0.148 0.022684148 0
-0.146 0.023797547 0
-0.145 0.023797547 0
0.0070000002 0.02723367 0
-0.052999999 0.030992772 0
-0.163 0.021505283 0
-0.14399999 0.023797547 0
-0.131 0.02487159 0
0.024 0.012936828 0
0.022 0.012917344 0
-0.226 0.01915749 0
-0.25600001 0.0083677983 0
-0.25299999 0.010435848 0
-0.032000002 0.030762857 0
-0.116 0.025939004 0
-0.126 0.027117869 0
-0.063000001 0.030009435 0
-0.222 0.019185254 0
-0.234 0.02030031 0
-0.142 0.023797547 0
0.023 0.016260549 0
-0.124 0.025976704 0
-0.115 0.025939004 0
-0.121 0.027078511 0
-0.21699999 0.019213019 0
-0.245 0.013735638 0
-0.112 0.028177004 0
-0.184 0.019296313 0
-0.123 0.025976704 0
0 0 0 1 0 0 0 1 0 0 0 1 0 0 0 0 0 318 1 0 0
